<svg width="20" height="20" viewBox="0 0 20 20" fill="none" xmlns="http://www.w3.org/2000/svg">
<path d="M10.72 0.0300295C9.28949 -0.0741053 7.8533 0.130996 6.50909 0.63139C5.16489 1.13178 3.94418 1.91574 2.92996 2.92996C1.91574 3.94418 1.13178 5.16489 0.63139 6.50909C0.130996 7.8533 -0.0741053 9.28949 0.0300295 10.72C0.390029 16.01 5.01003 20 10.31 20H14C14.55 20 15 19.55 15 19C15 18.45 14.55 18 14 18H10.33C6.60003 18 3.18003 15.58 2.25003 11.97C0.76003 6.17003 6.16003 0.76003 11.96 2.26003C15.58 3.18003 18 6.60003 18 10.33V11.43C18 12.22 17.29 13 16.5 13C15.71 13 15 12.22 15 11.43V10.18C15 7.67003 13.22 5.41003 10.74 5.06003C9.95099 4.9427 9.14533 5.01556 8.39014 5.27255C7.63495 5.52953 6.95208 5.9632 6.39837 6.53745C5.84466 7.1117 5.43615 7.80991 5.20684 8.57396C4.97752 9.33801 4.93405 10.1458 5.08003 10.93C5.25542 11.875 5.69965 12.7493 6.35947 13.4482C7.01929 14.147 7.86668 14.6407 8.80003 14.87C10.64 15.3 12.39 14.71 13.54 13.54C14.43 14.76 16.21 15.4 17.84 14.75C19.18 14.22 20 12.85 20 11.41V10.32C20 5.01003 16.01 0.390029 10.72 0.0300295ZM10 13C8.34003 13 7.00003 11.66 7.00003 10C7.00003 8.34003 8.34003 7.00003 10 7.00003C11.66 7.00003 13 8.34003 13 10C13 11.66 11.66 13 10 13Z" fill="#595959"/>
</svg>
