<svg width="19" height="20" viewBox="0 0 19 20" fill="none" xmlns="http://www.w3.org/2000/svg">
<path d="M17.9743 11.3831L16.391 5.68645C15.9269 4.01756 14.9182 2.55169 13.5254 1.52184C12.1326 0.491992 10.4355 -0.0427302 8.70384 0.00266986C6.97222 0.0480699 5.30546 0.670987 3.9685 1.7724C2.63155 2.87382 1.70112 4.39053 1.32512 6.08145L0.099285 11.5939C-0.0361188 12.2031 -0.0329883 12.8348 0.108446 13.4425C0.24988 14.0503 0.526005 14.6185 0.916437 15.1052C1.30687 15.592 1.80164 15.9848 2.36421 16.2547C2.92679 16.5247 3.5428 16.6648 4.16678 16.6648H5.09512C5.28638 17.6067 5.79739 18.4535 6.54157 19.0618C7.28575 19.67 8.21732 20.0023 9.17845 20.0023C10.1396 20.0023 11.0712 19.67 11.8153 19.0618C12.5595 18.4535 13.0705 17.6067 13.2618 16.6648H13.9601C14.6025 16.6648 15.2361 16.5164 15.8116 16.231C16.387 15.9456 16.8887 15.531 17.2775 15.0197C17.6662 14.5083 17.9314 13.914 18.0525 13.2831C18.1735 12.6523 18.147 12.002 17.9751 11.3831H17.9743ZM9.17845 18.3314C8.66323 18.3293 8.16126 18.168 7.7412 17.8697C7.32114 17.5714 7.00352 17.1505 6.83178 16.6648H11.5251C11.3534 17.1505 11.0358 17.5714 10.6157 17.8697C10.1956 18.168 9.69367 18.3293 9.17845 18.3314ZM15.9501 14.0106C15.7179 14.3187 15.4171 14.5683 15.0715 14.7397C14.7259 14.9112 14.3451 14.9996 13.9593 14.9981H4.16678C3.79244 14.998 3.42289 14.9139 3.0854 14.7519C2.74792 14.5899 2.45112 14.3542 2.21692 14.0622C1.98272 13.7702 1.81709 13.4293 1.73225 13.0647C1.64742 12.7 1.64555 12.321 1.72679 11.9556L2.95178 6.44228C3.24708 5.11412 3.97787 3.92278 5.028 3.05765C6.07812 2.19253 7.38731 1.70326 8.74743 1.66763C10.1076 1.63199 11.4406 2.05205 12.5345 2.861C13.6285 3.66996 14.4207 4.8214 14.7851 6.13228L16.3685 11.8289C16.4731 12.2001 16.4897 12.5905 16.4171 12.9692C16.3445 13.3479 16.1846 13.7045 15.9501 14.0106Z" fill="#0C1A30"/>
</svg>
