<svg width="23" height="23" viewBox="0 0 23 23" fill="none" xmlns="http://www.w3.org/2000/svg">
<path fill-rule="evenodd" clip-rule="evenodd" d="M15.9287 6.40152C15.6953 4.16711 13.7969 2.42497 11.4895 2.42497C10.3053 2.42001 9.16522 2.88569 8.32411 3.71908C7.594 4.44248 7.14139 5.39122 7.03464 6.40152H7.03384C5.41722 6.40152 4.059 7.58232 3.67742 9.63258L2.98692 14.9596C2.39915 18.8602 4.23349 20.5749 7.82346 20.5749H15.1717C18.4916 20.5749 20.4759 18.6422 20.0685 15.1737L19.3556 9.66829C18.8986 7.59253 17.5754 6.40152 15.9936 6.40152H15.9287ZM14.598 6.40152C14.3725 4.89469 13.0664 3.73878 11.4868 3.73878C10.6509 3.73528 9.84808 4.0632 9.2558 4.65005C8.77492 5.12651 8.46499 5.74179 8.36542 6.40152H14.598ZM7.03384 7.71534H15.9936C16.9212 7.71534 17.7362 8.44884 18.0561 9.89355L18.7309 15.1274C19.1325 17.9121 17.7958 19.2611 15.1717 19.2611H7.82346C4.98208 19.2611 3.83539 18.1892 4.29461 15.1409L4.98137 9.83611C5.24379 8.43154 6.06761 7.71534 7.03384 7.71534ZM14.1001 10.1536C14.4647 10.1536 14.7603 10.4477 14.7603 10.8105C14.7603 11.143 14.512 11.4179 14.1897 11.4614L14.1001 11.4674H14.0598C13.6952 11.4674 13.3996 11.1733 13.3996 10.8105C13.3996 10.4779 13.648 10.2031 13.9703 10.1596L14.0598 10.1536H14.1001ZM9.6278 10.8105C9.6278 10.4477 9.33222 10.1536 8.9676 10.1536H8.92732L8.83773 10.1596C8.51549 10.2031 8.26712 10.4779 8.26712 10.8105C8.26712 11.1733 8.5627 11.4674 8.92732 11.4674H8.9676L9.05719 11.4614C9.37943 11.4179 9.6278 11.143 9.6278 10.8105Z" fill="#51B1A6"/>
</svg>
