<svg width="16" height="22" viewBox="0 0 16 22" fill="none" xmlns="http://www.w3.org/2000/svg">
<path d="M8 21C11.866 21 15 17.866 15 14C15 10.134 11.866 7 8 7C4.13401 7 1 10.134 1 14C1 17.866 4.13401 21 8 21Z" stroke="#595959" stroke-width="2"/>
<path d="M11.5 8V4.5C11.5 4.04037 11.4095 3.58525 11.2336 3.16061C11.0577 2.73597 10.7999 2.35013 10.4749 2.02513C10.1499 1.70012 9.76403 1.44231 9.33939 1.26642C8.91475 1.09053 8.45963 1 8 1C7.54037 1 7.08525 1.09053 6.66061 1.26642C6.23597 1.44231 5.85013 1.70012 5.52513 2.02513C5.20012 2.35013 4.94231 2.73597 4.76642 3.16061C4.59053 3.58525 4.5 4.04037 4.5 4.5V8" stroke="#595959" stroke-width="2" stroke-linejoin="round"/>
<path d="M8 12V16" stroke="#595959" stroke-width="2" stroke-linecap="round" stroke-linejoin="round"/>
</svg>
