<svg width="16" height="18" viewBox="0 0 16 18" fill="none" xmlns="http://www.w3.org/2000/svg">
<path fill-rule="evenodd" clip-rule="evenodd" d="M7.77342 17.2614C7.8657 17.3096 7.96889 17.3341 8.07208 17.3333C8.17527 17.3325 8.27763 17.3072 8.37075 17.2581L11.344 15.6687C12.1871 15.2193 12.8474 14.7167 13.3625 14.1316C14.4825 12.8568 15.0941 11.2299 15.0832 9.5522L15.0479 4.01832C15.0446 3.38093 14.6259 2.81218 14.0068 2.60544L8.47562 0.749642C8.14256 0.636872 7.77761 0.639324 7.45042 0.755362L1.94021 2.67735C1.32442 2.89226 0.913336 3.4651 0.916692 4.10331L0.951928 9.6331C0.962834 11.3132 1.5954 12.9328 2.73385 14.1945C3.254 14.7715 3.92013 15.2667 4.7725 15.7088L7.77342 17.2614ZM6.98631 10.7574C7.11048 10.8768 7.27155 10.9356 7.43263 10.934C7.59371 10.9331 7.75395 10.8727 7.87644 10.7517L11.1257 7.54842C11.3698 7.30735 11.3673 6.92001 11.1207 6.68222C10.8732 6.44442 10.4747 6.44605 10.2305 6.68712L7.4234 9.45406L6.27404 8.34924C6.02655 8.11145 5.62889 8.1139 5.38392 8.35496C5.13979 8.59603 5.1423 8.98337 5.38979 9.22117L6.98631 10.7574Z" fill="#51B1A6"/>
</svg>
