<svg width="20" height="20" viewBox="0 0 20 20" fill="none" xmlns="http://www.w3.org/2000/svg">
<path fill-rule="evenodd" clip-rule="evenodd" d="M10 2.00049C8.3971 2.00049 7.09766 3.29993 7.09766 4.90287C7.09766 6.50581 8.3971 7.80525 10 7.80525C11.603 7.80525 12.9024 6.50581 12.9024 4.90287C12.9024 3.29993 11.603 2.00049 10 2.00049ZM5.09766 4.90287C5.09766 2.19536 7.29253 0.000488281 10 0.000488281C12.7075 0.000488281 14.9024 2.19536 14.9024 4.90287C14.9024 7.61038 12.7075 9.80525 10 9.80525C7.29253 9.80525 5.09766 7.61038 5.09766 4.90287Z" fill="#51B1A6"/>
<path fill-rule="evenodd" clip-rule="evenodd" d="M7.51784 13.3901C4.47035 13.3901 2 15.8605 2 18.908V18.9991C2 19.5514 1.55228 19.9991 1 19.9991C0.447715 19.9991 0 19.5514 0 18.9991V18.908C0 14.7559 3.36578 11.3901 7.51784 11.3901H12.4822C16.6342 11.3901 20 14.7559 20 18.908V18.9991C20 19.5514 19.5523 19.9991 19 19.9991C18.4477 19.9991 18 19.5514 18 18.9991V18.908C18 15.8605 15.5296 13.3901 12.4822 13.3901H7.51784Z" fill="#51B1A6"/>
</svg>
